# xmcd CD database file
#
# Track frame offsets:
#	150
#	17010
#	32353
#	52303
#	64453
#	92815
#	104498
#	134010
#	154560
#	178848
#	196367
#	226358
#	250293
#	267326
#	287438
#	298490
#
# Disc length: 4196 seconds
#
# Revision: 0
# Processed by: cddbd v1.5.2PL0 Copyright (c) Steve Scherf et al.
# Submitted via: CDex 1.70beta2
#
DISCID=f7106210
DTITLE=Hermann Naehring, Warnfried Altmann - Zwei und Frei
DYEAR=2009
DGENRE=Jazz
TTITLE0=Wer nur den lieben Gott lässt walten
TTITLE1=Ich seh dich in Antalya
TTITLE2=Aufbruch
TTITLE3=Wunderbare Welt
TTITLE4=Zwei und Frei
TTITLE5=Nachmittag an der Elbe-Oder?
TTITLE6=Präludium
TTITLE7=Noch Fragen?
TTITLE8=Meditation
TTITLE9=Sansibar
TTITLE10=Der Faun
TTITLE11=Malu
TTITLE12=Sarabande
TTITLE13=Buddys Bolero
TTITLE14=Lass mich los
TTITLE15=Wumbaba
EXTD=YEAR: 2009
EXTT0=
EXTT1=
EXTT2=
EXTT3=
EXTT4=
EXTT5=
EXTT6=
EXTT7=
EXTT8=
EXTT9=
EXTT10=
EXTT11=
EXTT12=
EXTT13=
EXTT14=
EXTT15=
PLAYORDER=
